# AST/ASF file generated using VICON BodyLanguage
# -----------------------------------------------
:version 1.10
:name VICON
:units
  mass 1.0
  length 0.45
  angle deg
:documentation
   .ast/.asf automatically generated from VICON data using
   VICON BodyBuilder and BodyLanguage model FoxedUp or BRILLIANT.MOD
:root
   order TX TY TZ RX RY RZ
   axis XYZ
   position 0 0 0  
   orientation 0 0 0 
:bonedata
  begin
     id 1 
     name lhipjoint
     direction 0.710188 -0.616876 0.339259 
     length 2.5669 
     axis 0 0 0  XYZ
  end
  begin
     id 2 
     name lfemur
     direction 0.34202 -0.939693 0  
     length 7.12796  
     axis 0 0 20  XYZ
    dof rx ry rz
    limits (-160.0 20.0)
           (-70.0 70.0)
           (-60.0 70.0)
  end
  begin
     id 3 
     name ltibia
     direction 0.34202 -0.939693 0   
     length 7.58108   
     axis 0 0 20   XYZ
    dof rx
    limits (-10.0 170.0)
  end
  begin
     id 4 
     name lfoot
     direction 0.0669471 -0.183936 0.980656   
     length 2.17365   
     axis -90 7.62852e-016 20   XYZ
    dof rx rz
    limits (-45.0 90.0)
           (-70.0 20.0)
  end
  begin
     id 5 
     name ltoes
     direction 1.53508e-011 -4.21705e-011 1   
     length 1.09427   
     axis -90 7.62852e-016 20   XYZ
    dof rx
    limits (-90.0 20.0)
  end
  begin
     id 6 
     name rhipjoint
     direction -0.700191 -0.625589 0.34405   
     length 2.53115  
     axis 0 0 0  XYZ 
  end
  begin
     id 7 
     name rfemur
     direction -0.34202 -0.939693 0   
     length 7.33006   
     axis 0 0 -20   XYZ
    dof rx ry rz
    limits (-160.0 20.0)
           (-70.0 70.0)
           (-70.0 60.0)
  end
  begin
     id 8 
     name rtibia
     direction -0.34202 -0.939693 0   
     length 7.64926   
     axis 0 0 -20   XYZ
    dof rx
    limits (-10.0 170.0)
 end
 begin
     id 9 
     name rfoot
     direction -0.0688927 -0.189281 0.979503   
     length 2.20493  
     axis -90 -7.62852e-016 -20   XYZ
    dof rx rz
    limits (-45.0 90.0)
           (-20.0 70.0)
  end
  begin
     id 10 
     name rtoes
     direction -1.53567e-011 -4.21933e-011 1   
     length 1.10919   
     axis -90 -7.62852e-016 -20   XYZ
    dof rx
    limits (-90.0 20.0)
  end
  begin
     id 11 
     name lowerback
     direction -0.0167868 0.989873 -0.140959   
     length 2.14596   
     axis 0 0 0   XYZ
    dof rx ry rz
    limits (-20.0 45.0)
           (-30.0 30.0)
           (-30.0 30.0)
  end
  begin
     id 12 
     name upperback
     direction 0.0129109 0.998033 0.0613525   
     length 2.10457   
     axis 0 0 0   XYZ
    dof rx ry rz
    limits (-20.0 45.0)
           (-30.0 30.0)
           (-30.0 30.0)
  end
  begin
     id 13 
     name thorax
     direction 0.0177047 0.991119 0.131797   
     length 2.17652   
     axis 0 0 0   XYZ
    dof rx ry rz
    limits (-20.0 45.0)
           (-30.0 30.0)
           (-30.0 30.0)
  end
  begin
     id 14 
     name lowerneck
     direction -0.0336893 0.997548 0.0613464   
     length 1.8912   
     axis 0 0 0   XYZ
    dof rx ry rz
    limits (-20.0 45.0)
           (-30.0 30.0)
           (-30.0 30.0)
  end
  begin
     id 15 
     name upperneck
     direction 0.0435909 0.997179 -0.0611028   
     length 1.8829   
     axis 0 0 0   XYZ
    dof rx ry rz
    limits (-20.0 45.0)
           (-30.0 30.0)
           (-30.0 30.0)
  end
  begin
     id 16
     name head
     direction 0.0175076 0.999444 -0.0283782  
     length 1.93197  
     axis 0 0 0   XYZ
    dof rx ry rz
    limits (-20.0 45.0)
           (-30.0 30.0)
           (-30.0 30.0)
  end
  begin
     id 17 
     name lclavicle
     direction 0.919164 0.389875 0.0559876  
     length 3.60004  
     axis 0 0 0   XYZ
    dof ry rz
    limits (-20.0 10.0)
           (0.0 20.0)
  end
  begin
     id 18 
     name lhumerus
     direction 1 -4.48958e-011 6.89191e-027   
     length 5.43301   
     axis 180 -30 -90   XYZ
    dof rx ry rz
    limits (-60.0 90.0)
           (-90.0 90.0)
           (-90.0 90.0)
  end
  begin
     id 19
     name lradius
     direction 1 -4.4897e-011 3.24727e-027   
     length 3.15936   
     axis 180 -30 -90   XYZ
    dof rx
    limits (-10.0 170.0)
  end
  begin
     id 20
     name lwrist
     direction 1 -4.4897e-011 9.00228e-027   
     length 1.57968   
     axis -6.29373e-015 90 90   XYZ
    dof ry
    limits (-180.0 0.0)
 end
  begin
     id 21 
     name lhand
     direction 1 -4.48968e-011 1.80042e-026   
     length 0.712827   
     axis -1.14882e-014 90 90   XYZ
    dof rx rz
    limits (-90.0 90.0)
           (-45.0 45.0)
  end
  begin
     id 22 
     name lfingers
     direction 1 -4.49019e-011 3.60267e-026   
     length 0.574699   
     axis -2.29769e-014 90 90   XYZ
    dof rx
    limits (0.0 90.0)
  end
  begin
     id 23
     name lthumb
     direction 0.707107 -6.3498e-011 0.707107   
     length 0.825157   
     axis -90 45 5.37419e-014   XYZ
    dof rx rz
    limits (-45.0 45.0)
           (-45.0 45.0)
  end
  begin
     id 24 
     name rclavicle
     direction -0.890334 0.455305 -0.00132111   
     length 3.51494  
     axis 0 0 0   XYZ 
    dof ry rz
    limits (-10.0 20.0)
           (-20.0 0.0)
  end
  begin
     id 25 
     name rhumerus
     direction -1 -4.48967e-011 5.07175e-028  
     length 5.34194   
     axis 180 30 90   XYZ
    dof rx ry rz
    limits (-90.0 60.0)
           (-90.0 90.0)
           (-90.0 90.0)
  end
  begin
     id 26 
     name rradius
     direction -1 -4.48955e-011 3.30467e-027   
     length 3.19351   
     axis 180 30 90   XYZ
    dof rx
    limits (-10.0 170.0)
  end
  begin
     id 27 
     name rwrist
     direction -1 -4.48968e-011 9.00208e-027   
     length 1.59676   
     axis -6.29373e-015 -90 -90   XYZ
    dof ry
    limits (-180.0 0.0)
  end
  begin
     id 28
     name rhand
     direction -1 -4.49e-011 1.80099e-026   
     length 0.743862   
     axis -1.14882e-014 -90 -90   XYZ
    dof rx rz
    limits (-90.0 90.0)
           (-45.0 45.0)
  end
  begin
     id 29
     name rfingers
     direction -1 -4.49009e-011 3.6023e-026   
     length 0.599721   
     axis -2.29769e-014 -90 -90   XYZ
    dof rx
    limits (0.0 90.0)
  end
  begin
     id 30
     name rthumb
     direction -0.707107 -6.35025e-011 0.707107   
     length 0.861083   
     axis -90 -45 -5.37419e-014   XYZ
    dof rx rz
    limits (-45.0 45.0)
           (-45.0 45.0)
  end
:hierarchy
  begin
    root lhipjoint rhipjoint lowerback
    lhipjoint lfemur
    lfemur ltibia
    ltibia lfoot
    lfoot ltoes
    rhipjoint rfemur
    rfemur rtibia
    rtibia rfoot
    rfoot rtoes
    lowerback upperback
    upperback thorax
    thorax lowerneck lclavicle rclavicle
    lowerneck upperneck
    upperneck head
    lclavicle lhumerus
    lhumerus lradius
    lradius lwrist
    lwrist lhand lthumb
    lhand lfingers
    rclavicle rhumerus
    rhumerus rradius
    rradius rwrist
    rwrist rhand rthumb
    rhand rfingers
  end

#!OML:ASF H:\Martial Arts Walks\Project 1\Capture day 1\Session 1\male.ASF
:FULLY-SPECIFIED
:DEGREES
563
root -2.36287 14.2473 -12.0087 5.58994 46.6037 1.80068
lowerback 13.6859 -0.649371 -8.20605
upperback -2.94723 -2.1152 2.08487
thorax -10.5971 -0.402769 7.43363
lowerneck 4.99037 -13.4956 -13.968
upperneck -1.31001 -18.7418 13.5844
head 1.41821 -9.51327 5.86926
rclavicle 1.2014e-013 2.48481e-014
rhumerus -0.76262 -13.7219 -66.5132
rradius 80.5815
rwrist 20.8351
rhand -44.9551 -38.2499
rfingers 7.12502
rthumb -17.7404 -67.4607
lclavicle 1.2014e-013 2.48481e-014
lhumerus -53.0106 -41.216 117.901
lradius 100.644
lwrist 76.6879
lhand 11.3244 38.4926
lfingers 7.12502
lthumb 36.3814 64.7145
rfemur -65.1584 -37.1257 20.4553
rtibia 69.2553
rfoot -8.0604 -5.5102
rtoes 4.38844
lfemur -25.5185 34.3332 -9.76543
ltibia 74.1228
lfoot -32.3567 20.8529
ltoes -22.3817
564
root -2.36992 14.2605 -11.9521 5.92984 46.278 2.01825
lowerback 13.665 -0.658937 -8.22234
upperback -2.95979 -2.13427 2.03993
thorax -10.5965 -0.412302 7.39613
lowerneck 4.91537 -13.4301 -13.9046
upperneck -1.43159 -18.6322 13.5928
head 1.37462 -9.45665 5.87141
rclavicle -6.48038e-014 7.95139e-016
rhumerus -0.728238 -13.4776 -66.4084
rradius 80.4005
rwrist 20.6046
rhand -44.8661 -38.3248
rfingers 7.12502
rthumb -17.6548 -67.5433
lclavicle -6.48038e-014 7.95139e-016
lhumerus -52.5113 -41.3415 117.769
lradius 100.084
lwrist 76.5164
lhand 10.5915 38.5046
lfingers 7.12502
lthumb 35.6871 64.8973
rfemur -65.6006 -37.1882 20.8689
rtibia 69.5841
rfoot -8.22535 -6.87939
rtoes 4.90878
lfemur -25.2885 34.5127 -9.75635
ltibia 73.7222
lfoot -32.0841 20.9509
ltoes -22.6897
565
root -2.37675 14.2741 -11.8929 6.27671 45.9402 2.23952
lowerback 13.6375 -0.67028 -8.24357
upperback -2.97039 -2.15524 2.0019
thorax -10.5892 -0.422611 7.3692
lowerneck 4.82858 -13.3635 -13.841
upperneck -1.55873 -18.5193 13.5989
head 1.33065 -9.39802 5.87231
rclavicle -2.01518e-014 9.34288e-015
rhumerus -0.687949 -13.2302 -66.284
rradius 80.1886
rwrist 20.3583
rhand -44.7701 -38.3938
rfingers 7.12502
rthumb -17.5625 -67.6205
lclavicle -2.01518e-014 9.34288e-015
lhumerus -51.9373 -41.483 117.633
lradius 99.4555
lwrist 76.3286
lhand 9.69119 38.4839
lfingers 7.12502
lthumb 34.8334 65.0787
rfemur -66.0581 -37.2685 21.3121
rtibia 69.9327
rfoot -8.40929 -8.27102
rtoes 5.67685
lfemur -25.042 34.6843 -9.74905
ltibia 73.2991
lfoot -31.7973 21.0609
ltoes -22.9942
566
root -2.38342 14.2882 -11.8312 6.63047 45.5878 2.46801
lowerback 13.6073 -0.683544 -8.27316
upperback -2.97915 -2.17939 1.96927
thorax -10.5772 -0.434017 7.3536
lowerneck 4.73077 -13.2941 -13.7763
upperneck -1.69366 -18.4009 13.6045
head 1.28536 -9.3363 5.87275
rclavicle -8.19987e-015 2.3059e-014
rhumerus -0.647491 -12.9762 -66.141
rradius 79.9489
rwrist 20.1026
rhand -44.6723 -38.4592
rfingers 7.12502
rthumb -17.4683 -67.6944
lclavicle -8.19987e-015 2.3059e-014
lhumerus -51.2881 -41.6317 117.492
lradius 98.7619
lwrist 76.1076
lhand 8.62097 38.4134
lfingers 7.12502
lthumb 33.8172 65.2375
rfemur -66.5248 -37.3605 21.7777
rtibia 70.301
rfoot -8.61984 -9.69822
rtoes 6.68661
lfemur -24.7739 34.8456 -9.7451
ltibia 72.8515
lfoot -31.4952 21.1858
ltoes -23.2926
567
root -2.38999 14.3026 -11.7667 6.99 45.2169 2.7056
lowerback 13.5799 -0.698944 -8.31142
upperback -2.98767 -2.20786 1.93934
thorax -10.5655 -0.446812 7.34703
lowerneck 4.62425 -13.22 -13.7076
upperneck -1.83702 -18.2742 13.6094
head 1.23755 -9.27023 5.87268
rclavicle -1.48592e-014 -2.70347e-014
rhumerus -0.614443 -12.7118 -65.9828
rradius 79.6846
rwrist 19.847
rhand -44.5726 -38.5159
rfingers 7.12502
rthumb -17.3724 -67.7595
lclavicle -1.48592e-014 -2.70347e-014
lhumerus -50.5678 -41.7783 117.341
lradius 98.0078
lwrist 75.8423
lhand 7.39004 38.2727
lfingers 7.12502
lthumb 32.6469 65.3467
rfemur -66.9937 -37.4566 22.2579
rtibia 70.6864
rfoot -8.8646 -11.1741
rtoes 7.91762
lfemur -24.479 34.9951 -9.74534
ltibia 72.3771
lfoot -31.1759 21.3293
ltoes -23.5826
568
root -2.39643 14.3176 -11.6995 7.35288 44.8222 2.95131
lowerback 13.5583 -0.716384 -8.35655
upperback -2.99761 -2.24076 1.91007
thorax -10.5578 -0.460959 7.34643
lowerneck 4.51172 -13.1391 -13.633
upperneck -1.98794 -18.1369 13.6115
head 1.18636 -9.19872 5.87164
rclavicle -1.04635e-013 3.08116e-014
rhumerus -0.59383 -12.4323 -65.8133
rradius 79.3971
rwrist 19.6005
rhand -44.4663 -38.5491
rfingers 7.12502
rthumb -17.27 -67.8017
lclavicle -1.04635e-013 3.08116e-014
lhumerus -49.7818 -41.9143 117.179
lradius 97.1998
lwrist 75.536
lhand 6.01487 38.0697
lfingers 7.12502
lthumb 31.3375 65.4063
rfemur -67.4573 -37.5481 22.7463
rtibia 71.0834
rfoot -9.15054 -12.7083
rtoes 9.3357
lfemur -24.1519 35.1328 -9.74936
ltibia 71.8731
lfoot -30.8372 21.4958
ltoes -23.8613
569
root -2.40262 14.3332 -11.6297 7.71589 44.3982 3.20269
lowerback 13.5442 -0.735691 -8.4052
upperback -3.01023 -2.27764 1.87975
thorax -10.5567 -0.476326 7.34797
lowerneck 4.39618 -13.0496 -13.5512
upperneck -2.1445 -17.987 13.6085
head 1.13131 -9.12084 5.86904
rclavicle 1.77664e-014 -7.95139e-016
rhumerus -0.587904 -12.1337 -65.6375
rradius 79.0859
rwrist 19.3716
rhand -44.3457 -38.5456
rfingers 7.12502
rthumb -17.1539 -67.8084
lclavicle 1.77664e-014 -7.95139e-016
lhumerus -48.9363 -42.0337 117.005
lradius 96.3449
lwrist 75.2093
lhand 4.52427 37.8218
lfingers 7.12502
lthumb 29.9161 65.4243
rfemur -67.908 -37.627 23.2372
rtibia 71.4851
rfoot -9.4824 -14.3031
rtoes 10.8922
lfemur -23.7878 35.2585 -9.75632
ltibia 71.3363
lfoot -30.477 21.6896
ltoes -24.1254
570
root -2.40837 14.3495 -11.557 8.07563 43.94 3.45709
lowerback 13.5368 -0.756779 -8.45367
upperback -3.02591 -2.31783 1.84707
thorax -10.5625 -0.492851 7.34792
lowerneck 4.27917 -12.9502 -13.4619
upperneck -2.30294 -17.8231 13.5974
head 1.07278 -9.0359 5.86403
rclavicle 6.04554e-014 1.59028e-015
rhumerus -0.594335 -11.8128 -65.461
rradius 78.748
rwrist 19.1654
rhand -44.2016 -38.49
rfingers 7.12502
rthumb -17.0153 -67.7648
lclavicle 6.04554e-014 1.59028e-015
lhumerus -48.036 -42.1323 116.818
lradius 95.4514
lwrist 74.9012
lhand 2.95662 37.5551
lfingers 7.12502
lthumb 28.4191 65.4173
rfemur -68.3379 -37.6869 23.7246
rtibia 71.8839
rfoot -9.86237 -15.9519
rtoes 12.5322
lfemur -23.3812 35.3708 -9.76562
ltibia 70.7632
lfoot -30.0941 21.9139
ltoes -24.3693
